<svg width="472" height="610" viewBox="0 0 472 610" fill="none" xmlns="http://www.w3.org/2000/svg">
<path d="M32.1113 32.1901C32.1116 145.861 207.91 172.78 207.91 305.001C207.91 437.222 32.1116 464.141 32.1113 577.812H439.229C439.229 464.141 263.431 437.222 263.431 305.001C263.431 172.78 439.229 145.861 439.229 32.1901H32.1113Z" fill="#1E1E1E"/>
<path d="M238.332 552.629H269.415L238.332 537.94V552.629Z" fill="#AC59FF"/>
<path d="M238.332 305.001H233.176V537.94V552.629H238.332V537.94V305.001Z" fill="#AC59FF"/>
<path d="M202.094 552.629H233.176V537.94L202.094 552.629Z" fill="#AC59FF"/>
<path d="M61.491 57.3726C65.1695 68.2006 71.2288 78.3359 79.3181 88.4344C92.9772 105.486 111.104 120.915 131.928 138.64L131.949 138.658C133.43 139.918 134.924 141.19 136.432 142.475C179.521 179.209 233.176 225.941 233.176 305.001H238.332C238.332 225.941 291.987 179.209 335.077 142.475C336.591 141.184 338.093 139.906 339.581 138.64C360.404 120.915 378.531 105.486 392.19 88.4344C400.279 78.3359 406.339 68.2005 410.017 57.3726H61.491Z" fill="#AC59FF"/>
<path d="M32.1113 16.451H16.3722L16.3722 32.1901C16.3723 65.1604 29.2756 91.5219 47.296 114.018C63.5242 134.277 84.5976 152.19 104.62 169.21C106.356 170.685 108.084 172.154 109.8 173.617C154.287 211.541 192.171 246.984 192.171 305.001C192.171 363.018 154.287 398.461 109.8 436.385C108.084 437.848 106.356 439.317 104.62 440.792C84.5977 457.812 63.5242 475.725 47.296 495.984C29.2756 518.48 16.3723 544.842 16.3722 577.812L16.3722 593.551H32.1113H439.229H454.968L454.968 577.812C454.968 544.842 442.065 518.48 424.044 495.984C407.816 475.725 386.743 457.812 366.72 440.792C364.984 439.317 363.257 437.848 361.54 436.385C317.053 398.461 279.17 363.018 279.17 305.001C279.17 246.984 317.053 211.541 361.54 173.617C363.257 172.154 364.984 170.685 366.72 169.21C386.743 152.19 407.816 134.277 424.044 114.018C442.065 91.5219 454.968 65.1604 454.968 32.1901L454.968 16.451H439.229H32.1113Z" stroke="#BEBEBE" stroke-width="31.4782"/>
</svg>
