<svg width="224" height="290" viewBox="0 0 224 290" fill="none" xmlns="http://www.w3.org/2000/svg">
<path d="M15 15C15.0001 69.1666 98.7716 81.9941 98.7716 145C98.7716 208.006 15.0001 220.833 15 275H209C209 220.833 125.228 208.006 125.228 145C125.228 81.9941 209 69.1666 209 15H15Z" fill="#1F1F1F"/>
<path d="M29 27C30.7529 32.1597 33.6403 36.9894 37.495 41.8016C44.0038 49.927 52.6416 57.2794 62.5647 65.7256C63.2736 66.329 63.989 66.938 64.7107 67.5532C85.2439 85.0574 110.812 107.326 110.812 145V256L96.81 263H127.27L113.268 256V145C113.268 107.326 138.836 85.0574 159.369 67.5532C160.091 66.9379 160.806 66.3289 161.515 65.7255C171.438 57.2792 180.076 49.927 186.585 41.8016C190.44 36.9894 193.327 32.1597 195.08 27H29Z" fill="#AC59FF"/>
<path d="M15 7.5H7.49998L7.5 15C7.50004 30.711 13.6487 43.2728 22.2358 53.9928C29.9689 63.6465 40.0108 72.1824 49.5519 80.2927C50.3791 80.9958 51.2025 81.6957 52.0203 82.3928C73.2192 100.465 91.2716 117.354 91.2716 145C91.2716 172.646 73.2192 189.535 52.0203 207.607C51.2025 208.304 50.3792 209.004 49.5521 209.707C40.0108 217.818 29.9689 226.353 22.2358 236.007C13.6487 246.727 7.50004 259.289 7.5 275L7.49999 282.5H15H209H216.5L216.5 275C216.5 259.289 210.351 246.727 201.764 236.007C194.031 226.353 183.989 217.818 174.448 209.707C173.621 209.004 172.797 208.304 171.98 207.607C150.781 189.535 132.728 172.646 132.728 145C132.728 117.354 150.781 100.465 171.98 82.3928C172.797 81.6957 173.621 80.9958 174.448 80.2927C183.989 72.1825 194.031 63.6465 201.764 53.9928C210.351 43.2728 216.5 30.711 216.5 15L216.5 7.5H209H15Z" stroke="#BEBEBE" stroke-width="15"/>
</svg>
